<svg width="14" height="14" viewBox="0 0 14 14" fill="none" xmlns="http://www.w3.org/2000/svg">
<path d="M5.19203 7.86065L1.66536 11.394V10.334C1.66536 10.1572 1.59513 9.9876 1.4701 9.86258C1.34508 9.73756 1.17551 9.66732 0.998698 9.66732C0.821887 9.66732 0.652318 9.73756 0.527293 9.86258C0.402269 9.9876 0.332031 10.1572 0.332031 10.334V13.0007C0.333085 13.0878 0.351204 13.1738 0.385365 13.254C0.453014 13.4169 0.582465 13.5463 0.745365 13.614C0.825513 13.6481 0.91158 13.6663 0.998698 13.6673H3.66536C3.84218 13.6673 4.01174 13.5971 4.13677 13.4721C4.26179 13.347 4.33203 13.1775 4.33203 13.0007C4.33203 12.8238 4.26179 12.6543 4.13677 12.5292C4.01174 12.4042 3.84218 12.334 3.66536 12.334H2.60536L6.1387 8.80732C6.26423 8.68178 6.33476 8.51152 6.33476 8.33398C6.33476 8.15645 6.26423 7.98619 6.1387 7.86065C6.01316 7.73512 5.8429 7.66459 5.66536 7.66459C5.48783 7.66459 5.31757 7.73512 5.19203 7.86065ZM2.60536 1.66732H3.66536C3.84218 1.66732 4.01174 1.59708 4.13677 1.47206C4.26179 1.34703 4.33203 1.17746 4.33203 1.00065C4.33203 0.82384 4.26179 0.654271 4.13677 0.529246C4.01174 0.404222 3.84218 0.333984 3.66536 0.333984H0.998698C0.91158 0.335038 0.825513 0.353157 0.745365 0.387318C0.582465 0.454968 0.453014 0.584418 0.385365 0.747318C0.351204 0.827466 0.333085 0.913533 0.332031 1.00065V3.66732C0.332031 3.84413 0.402269 4.0137 0.527293 4.13872C0.652318 4.26375 0.821887 4.33398 0.998698 4.33398C1.17551 4.33398 1.34508 4.26375 1.4701 4.13872C1.59513 4.0137 1.66536 3.84413 1.66536 3.66732V2.60732L5.19203 6.14065C5.25401 6.20314 5.32774 6.25273 5.40898 6.28658C5.49022 6.32042 5.57736 6.33785 5.66536 6.33785C5.75337 6.33785 5.84051 6.32042 5.92175 6.28658C6.00299 6.25273 6.07672 6.20314 6.1387 6.14065C6.20118 6.07868 6.25078 6.00494 6.28463 5.9237C6.31847 5.84246 6.3359 5.75533 6.3359 5.66732C6.3359 5.57931 6.31847 5.49217 6.28463 5.41093C6.25078 5.32969 6.20118 5.25596 6.1387 5.19398L2.60536 1.66732ZM12.9987 9.66732C12.8219 9.66732 12.6523 9.73756 12.5273 9.86258C12.4023 9.9876 12.332 10.1572 12.332 10.334V11.394L8.80536 7.86065C8.67983 7.73512 8.50957 7.66459 8.33203 7.66459C8.1545 7.66459 7.98423 7.73512 7.8587 7.86065C7.73316 7.98619 7.66264 8.15645 7.66264 8.33398C7.66264 8.51152 7.73316 8.68178 7.8587 8.80732L11.392 12.334H10.332C10.1552 12.334 9.98565 12.4042 9.86063 12.5292C9.7356 12.6543 9.66537 12.8238 9.66537 13.0007C9.66537 13.1775 9.7356 13.347 9.86063 13.4721C9.98565 13.5971 10.1552 13.6673 10.332 13.6673H12.9987C13.0858 13.6663 13.1719 13.6481 13.252 13.614C13.4149 13.5463 13.5444 13.4169 13.612 13.254C13.6462 13.1738 13.6643 13.0878 13.6654 13.0007V10.334C13.6654 10.1572 13.5951 9.9876 13.4701 9.86258C13.3451 9.73756 13.1755 9.66732 12.9987 9.66732ZM13.612 0.747318C13.5444 0.584418 13.4149 0.454968 13.252 0.387318C13.1719 0.353157 13.0858 0.335038 12.9987 0.333984H10.332C10.1552 0.333984 9.98565 0.404222 9.86063 0.529246C9.7356 0.654271 9.66537 0.82384 9.66537 1.00065C9.66537 1.17746 9.7356 1.34703 9.86063 1.47206C9.98565 1.59708 10.1552 1.66732 10.332 1.66732H11.392L7.8587 5.19398C7.79621 5.25596 7.74662 5.32969 7.71277 5.41093C7.67893 5.49217 7.6615 5.57931 7.6615 5.66732C7.6615 5.75533 7.67893 5.84246 7.71277 5.9237C7.74662 6.00494 7.79621 6.07868 7.8587 6.14065C7.92067 6.20314 7.99441 6.25273 8.07565 6.28658C8.15689 6.32042 8.24402 6.33785 8.33203 6.33785C8.42004 6.33785 8.50718 6.32042 8.58842 6.28658C8.66966 6.25273 8.74339 6.20314 8.80536 6.14065L12.332 2.60732V3.66732C12.332 3.84413 12.4023 4.0137 12.5273 4.13872C12.6523 4.26375 12.8219 4.33398 12.9987 4.33398C13.1755 4.33398 13.3451 4.26375 13.4701 4.13872C13.5951 4.0137 13.6654 3.84413 13.6654 3.66732V1.00065C13.6643 0.913533 13.6462 0.827466 13.612 0.747318Z" fill="#696969"/>
</svg>
