<svg width="14" height="8" viewBox="0 0 14 8" fill="none" xmlns="http://www.w3.org/2000/svg">
<path d="M0.998698 1.33333H12.9987C13.1755 1.33333 13.3451 1.2631 13.4701 1.13807C13.5951 1.01305 13.6654 0.843478 13.6654 0.666667C13.6654 0.489856 13.5951 0.320287 13.4701 0.195262C13.3451 0.070238 13.1755 0 12.9987 0H0.998698C0.821887 0 0.652318 0.070238 0.527293 0.195262C0.402269 0.320287 0.332031 0.489856 0.332031 0.666667C0.332031 0.843478 0.402269 1.01305 0.527293 1.13807C0.652318 1.2631 0.821887 1.33333 0.998698 1.33333ZM12.9987 6.66667H0.998698C0.821887 6.66667 0.652318 6.7369 0.527293 6.86193C0.402269 6.98695 0.332031 7.15652 0.332031 7.33333C0.332031 7.51014 0.402269 7.67971 0.527293 7.80474C0.652318 7.92976 0.821887 8 0.998698 8H12.9987C13.1755 8 13.3451 7.92976 13.4701 7.80474C13.5951 7.67971 13.6654 7.51014 13.6654 7.33333C13.6654 7.15652 13.5951 6.98695 13.4701 6.86193C13.3451 6.7369 13.1755 6.66667 12.9987 6.66667ZM12.9987 3.33333H0.998698C0.821887 3.33333 0.652318 3.40357 0.527293 3.5286C0.402269 3.65362 0.332031 3.82319 0.332031 4C0.332031 4.17681 0.402269 4.34638 0.527293 4.4714C0.652318 4.59643 0.821887 4.66667 0.998698 4.66667H12.9987C13.1755 4.66667 13.3451 4.59643 13.4701 4.4714C13.5951 4.34638 13.6654 4.17681 13.6654 4C13.6654 3.82319 13.5951 3.65362 13.4701 3.5286C13.3451 3.40357 13.1755 3.33333 12.9987 3.33333Z" fill="#696969"/>
</svg>
