<svg width="10" height="14" viewBox="0 0 10 14" fill="none" xmlns="http://www.w3.org/2000/svg">
<path d="M7.66537 0.333984H2.33204C1.8016 0.333984 1.2929 0.544698 0.917823 0.919771C0.54275 1.29484 0.332037 1.80355 0.332037 2.33398V13.0007C0.33157 13.1181 0.362153 13.2336 0.420688 13.3355C0.479224 13.4373 0.563634 13.5219 0.66537 13.5807C0.766716 13.6392 0.881679 13.67 0.998703 13.67C1.11573 13.67 1.23069 13.6392 1.33204 13.5807L4.9987 11.4607L8.66537 13.5807C8.76697 13.6382 8.88192 13.6681 8.9987 13.6673C9.11549 13.6681 9.23043 13.6382 9.33204 13.5807C9.43377 13.5219 9.51818 13.4373 9.57672 13.3355C9.63525 13.2336 9.66584 13.1181 9.66537 13.0007V2.33398C9.66537 1.80355 9.45466 1.29484 9.07958 0.919771C8.70451 0.544698 8.1958 0.333984 7.66537 0.333984ZM8.33204 11.8473L5.33204 10.114C5.23069 10.0555 5.11573 10.0247 4.9987 10.0247C4.88168 10.0247 4.76672 10.0555 4.66537 10.114L1.66537 11.8473V2.33398C1.66537 2.15717 1.73561 1.9876 1.86063 1.86258C1.98566 1.73756 2.15523 1.66732 2.33204 1.66732H7.66537C7.84218 1.66732 8.01175 1.73756 8.13677 1.86258C8.2618 1.9876 8.33204 2.15717 8.33204 2.33398V11.8473Z" fill="#696969"/>
</svg>
