<svg width="10" height="14" viewBox="0 0 10 14" fill="none" xmlns="http://www.w3.org/2000/svg">
<path fill-rule="evenodd" clip-rule="evenodd" d="M2.33204 0.333984H7.66537C8.1958 0.333984 8.70451 0.544698 9.07958 0.919771C9.45466 1.29484 9.66537 1.80355 9.66537 2.33398V13.0007C9.66584 13.1181 9.63525 13.2336 9.57672 13.3355C9.51818 13.4373 9.43377 13.5219 9.33204 13.5807C9.23043 13.6382 9.11549 13.6681 8.9987 13.6673C8.88192 13.6681 8.76697 13.6382 8.66537 13.5807L4.9987 11.4607L1.33204 13.5807C1.23069 13.6392 1.11573 13.67 0.998703 13.67C0.881679 13.67 0.766716 13.6392 0.66537 13.5807C0.563634 13.5219 0.479224 13.4373 0.420688 13.3355C0.362153 13.2336 0.33157 13.1181 0.332037 13.0007V2.33398C0.332037 1.80355 0.54275 1.29484 0.917823 0.919771C1.2929 0.544698 1.8016 0.333984 2.33204 0.333984Z" fill="#696969"/>
</svg>
